<svg width="36" height="36" viewBox="0 0 36 36" fill="none" xmlns="http://www.w3.org/2000/svg">
<path fill-rule="evenodd" clip-rule="evenodd" d="M23.5275 5.74717C24.8399 4.22619 25.7245 2.10776 25.4824 0C23.5913 0.072 21.3033 1.20806 19.9473 2.72725C18.7296 4.07543 17.6667 6.22961 17.9524 8.296C20.062 8.45258 22.2152 7.26993 23.5275 5.74717ZM28.2581 19.125C28.3109 24.5735 33.2453 26.386 33.2999 26.4094C33.2599 26.5372 32.5118 28.9919 30.7008 31.5299C29.1336 33.7223 27.5082 35.9057 24.9473 35.9525C22.4318 35.9975 21.6218 34.5234 18.7442 34.5234C15.8683 34.5234 14.9692 35.9056 12.5884 35.9974C10.1167 36.0856 8.2328 33.6254 6.65473 31.4402C3.42577 26.9709 0.959469 18.8102 4.27215 13.3022C5.91757 10.5681 8.85711 8.83402 12.0497 8.79082C14.4759 8.74582 16.7675 10.3553 18.2509 10.3553C19.7344 10.3553 22.5192 8.42029 25.446 8.70469C26.6709 8.75329 30.111 9.17794 32.3189 12.2757C32.1405 12.3819 28.2144 14.5711 28.2581 19.125Z" fill="black"/>
</svg>
