<svg width="24" height="24" viewBox="0 0 24 24" fill="none" xmlns="http://www.w3.org/2000/svg">
<path d="M8.64009 8.65628C8.24245 8.65628 7.92009 8.97863 7.92009 9.37628C7.92009 9.77392 8.24245 10.0963 8.64009 10.0963V8.65628ZM15.3601 10.0963C15.7577 10.0963 16.0801 9.77392 16.0801 9.37628C16.0801 8.97863 15.7577 8.65628 15.3601 8.65628V10.0963ZM9.48009 11.1129C9.08245 11.1129 8.76009 11.4353 8.76009 11.8329C8.76009 12.2305 9.08245 12.5529 9.48009 12.5529V11.1129ZM14.5201 12.5529C14.9177 12.5529 15.2401 12.2305 15.2401 11.8329C15.2401 11.4353 14.9177 11.1129 14.5201 11.1129V12.5529ZM8.79657 5.27996V4.55994L8.79132 4.55997L8.79657 5.27996ZM15.2046 5.27996L15.21 4.55996H15.2046V5.27996ZM18.7201 8.84828L18.0001 8.84299V8.84828H18.7201ZM18.7201 13.1808H18.0001V13.186L18.7201 13.1808ZM15.2036 16.7491V17.4691H15.2089L15.2036 16.7491ZM8.79657 16.7491V16.0291C8.6733 16.0291 8.55209 16.0608 8.44455 16.121L8.79657 16.7491ZM5.28009 18.72H4.56009C4.56009 18.9755 4.6956 19.212 4.91613 19.3412C5.13665 19.4704 5.40916 19.473 5.63212 19.348L5.28009 18.72ZM5.28009 8.84828H6.00011L6.00007 8.84299L5.28009 8.84828ZM8.64009 10.0963H15.3601V8.65628H8.64009V10.0963ZM9.48009 12.5529H14.5201V11.1129H9.48009V12.5529ZM8.79657 5.99996H15.2046V4.55996L8.79657 4.55994V5.99996ZM15.1991 5.99994C16.7577 6.01172 18.0115 7.28449 18.0001 8.84299L19.4401 8.85357C19.4574 6.49992 17.5637 4.57775 15.21 4.55996L15.1991 5.99994ZM18.0001 8.84828V13.1808H19.4401V8.84828H18.0001ZM18.0001 13.186C18.0056 13.9346 17.7135 14.6546 17.188 15.1878L18.2137 16.1986C19.0072 15.3934 19.4483 14.306 19.4401 13.1755L18.0001 13.186ZM17.188 15.1878C16.6626 15.721 15.9469 16.0236 15.1983 16.0291L15.2089 17.4691C16.3393 17.4608 17.4203 17.0039 18.2137 16.1986L17.188 15.1878ZM15.2036 16.0291H8.79657V17.4691H15.2036V16.0291ZM8.44455 16.121L4.92807 18.0919L5.63212 19.348L9.1486 17.3771L8.44455 16.121ZM6.00009 18.72L6.00011 8.84828H4.56009V18.72H6.00009ZM6.00007 8.84299C5.99457 8.09444 6.28667 7.37436 6.81211 6.84117L5.78646 5.83042C4.99294 6.63563 4.55181 7.7231 4.56011 8.85357L6.00007 8.84299ZM6.81211 6.84117C7.33755 6.308 8.05326 6.00539 8.80182 5.99994L8.79132 4.55997C7.66086 4.56821 6.57996 5.02521 5.78646 5.83042L6.81211 6.84117Z" fill="#EEF1F3"/>
</svg>
