<svg width="25" height="24" viewBox="0 0 25 24" fill="none" xmlns="http://www.w3.org/2000/svg">
<path opacity="0.5" d="M1.5 12C1.5 6.81455 1.5 4.22183 3.11091 2.61091C4.72183 1 7.31455 1 12.5 1C17.6854 1 20.2782 1 21.8891 2.61091C23.5 4.22183 23.5 6.81455 23.5 12C23.5 17.1854 23.5 19.7782 21.8891 21.3891C20.2782 23 17.6854 23 12.5 23C7.31455 23 4.72183 23 3.11091 21.3891C1.5 19.7782 1.5 17.1854 1.5 12Z" fill="#F46262"/>
<path d="M14.4261 14.302C14.6711 14.1109 14.8933 13.8887 15.3377 13.4443L20.878 7.90392C21.012 7.76998 20.9507 7.53927 20.7717 7.47718C20.1178 7.25029 19.267 6.82432 18.4713 6.02853C17.6755 5.23275 17.2495 4.38204 17.0226 3.72806C16.9605 3.5491 16.7298 3.48779 16.5959 3.62174L11.0555 9.1621C10.6111 9.60652 10.3889 9.82872 10.1978 10.0738C9.97235 10.3628 9.77908 10.6755 9.62139 11.0064C9.48771 11.2869 9.38834 11.585 9.18959 12.1812L8.93278 12.9517L8.52443 14.1767L8.14153 15.3254C8.04373 15.6188 8.1201 15.9423 8.3388 16.161C8.5575 16.3797 8.88099 16.4561 9.17441 16.3583L10.3231 15.9754L11.5481 15.567L12.3186 15.3102C12.9148 15.1115 13.2129 15.0121 13.4934 14.8784C13.8243 14.7207 14.137 14.5275 14.4261 14.302Z" fill="#F46262"/>
<path d="M22.6128 6.16905C23.7953 4.98656 23.7953 3.06936 22.6128 1.88687C21.4303 0.704377 19.5131 0.704377 18.3307 1.88687L18.1525 2.06499C17.9807 2.23687 17.9028 2.47695 17.9457 2.7162C17.9727 2.8667 18.0228 3.08674 18.1139 3.3493C18.2961 3.87439 18.6401 4.56368 19.2881 5.21165C19.936 5.85961 20.6253 6.20364 21.1504 6.38581C21.413 6.4769 21.633 6.52697 21.7835 6.55399C22.0228 6.59693 22.2628 6.51905 22.4347 6.34717L22.6128 6.16905Z" fill="#F46262"/>
</svg>
