<svg width="25" height="24" viewBox="0 0 25 24" fill="none" xmlns="http://www.w3.org/2000/svg">
<path opacity="0.5" fill-rule="evenodd" clip-rule="evenodd" d="M2.5 9.13686C2.5 13.542 5.79819 16.0831 8.60627 18.2466C8.89814 18.4715 9.18471 18.6923 9.46173 18.9107C10.5 19.7292 11.5 20.4998 12.5 20.4998V5.50039C8.00016 0.825221 2.5 4.27392 2.5 9.13686Z" fill="#F46262"/>
<path d="M14.5 7.49903L12.5 5.50038V20.4998C13.5 20.4998 14.5 19.7292 15.5383 18.9107C15.8153 18.6923 16.1019 18.4715 16.3937 18.2466C19.2018 16.0831 22.5 13.542 22.5 9.13685C22.5 4.6744 17.8685 1.40284 13.6285 4.50687L15.5605 6.43818C15.8534 6.73102 15.8535 7.20589 15.5607 7.49883C15.2678 7.79178 14.7929 7.79187 14.5 7.49903Z" fill="#F46262"/>
</svg>
