<svg width="37" height="36" viewBox="0 0 37 36" fill="none" xmlns="http://www.w3.org/2000/svg">
<path fill-rule="evenodd" clip-rule="evenodd" d="M8.24538 18C8.24538 16.8568 8.43525 15.7608 8.77413 14.7328L2.84252 10.2032C1.68648 12.5504 1.03516 15.1952 1.03516 18C1.03516 20.8024 1.68568 23.4456 2.84012 25.7912L8.76853 21.2528C8.43285 20.2296 8.24538 19.1376 8.24538 18Z" fill="#FBBC05"/>
<path fill-rule="evenodd" clip-rule="evenodd" d="M18.6602 7.59999C21.1437 7.59999 23.3869 8.47999 25.1494 9.91999L30.2766 4.79999C27.1522 2.07999 23.1465 0.399994 18.6602 0.399994C11.6951 0.399994 5.709 4.38319 2.84253 10.2032L8.77414 14.7328C10.1409 10.584 14.0368 7.59999 18.6602 7.59999Z" fill="#EB4335"/>
<path fill-rule="evenodd" clip-rule="evenodd" d="M18.6602 28.4C14.0368 28.4 10.1409 25.416 8.77414 21.2672L2.84253 25.796C5.709 31.6168 11.6951 35.6 18.6602 35.6C22.9591 35.6 27.0633 34.0736 30.1437 31.2136L24.5133 26.8608C22.9246 27.8616 20.9242 28.4 18.6602 28.4Z" fill="#34A853"/>
<path fill-rule="evenodd" clip-rule="evenodd" d="M35.484 18C35.484 16.96 35.3238 15.84 35.0835 14.8H18.6602V21.6H28.1136C27.6409 23.9184 26.3543 25.7008 24.5133 26.8608L30.1436 31.2136C33.3794 28.2104 35.484 23.7368 35.484 18Z" fill="#4285F4"/>
</svg>
