<svg width="32" height="32" viewBox="0 0 32 32" fill="none" xmlns="http://www.w3.org/2000/svg">
<g clip-path="url(#clip0_2055_248)">
<path fill-rule="evenodd" clip-rule="evenodd" d="M27.0857 24.7793C27.9595 24.1897 28.6798 23.4001 29.1867 22.4759C29.6936 21.5518 29.9724 20.5199 30 19.4663C30 15.5863 26.2235 12.4394 21.5662 12.4394C16.9089 12.4394 13.1323 15.5859 13.1323 19.4663C13.1323 23.3467 16.9088 26.4943 21.5662 26.4943C22.4975 26.4953 23.4243 26.3657 24.3195 26.1093L24.5668 26.0719C24.725 26.0747 24.8796 26.1196 25.0148 26.2019L26.8617 27.2683L27.0238 27.3208C27.0984 27.3207 27.1699 27.2911 27.2226 27.2384C27.2753 27.1856 27.305 27.1141 27.305 27.0396L27.2595 26.8343L26.8795 25.4168L26.8503 25.2368C26.8501 25.1472 26.8714 25.059 26.9123 24.9794C26.9533 24.8998 27.0128 24.8311 27.0857 24.7793ZM12.1208 4.68005C6.5313 4.68005 2 8.45525 2 13.1138C2.03292 14.378 2.3674 15.616 2.97559 16.7249C3.58378 17.8337 4.44807 18.7811 5.4965 19.4884C5.58441 19.5506 5.65606 19.633 5.7054 19.7287C5.75474 19.8245 5.78033 19.9307 5.78 20.0384L5.745 20.2531L5.2888 21.9541L5.234 22.2001C5.23403 22.2896 5.26953 22.3754 5.33273 22.4389C5.39593 22.5023 5.48168 22.538 5.5712 22.5384L5.7672 22.4754L7.9827 21.1954C8.14444 21.0965 8.32976 21.0429 8.5193 21.0402L8.8168 21.0845C9.8911 21.3924 11.0032 21.5483 12.1208 21.5477L12.6762 21.5337C12.4524 20.8677 12.3377 20.17 12.3367 19.4675C12.3367 15.2197 16.469 11.7757 21.5662 11.7757L22.1162 11.7897C21.3538 7.76105 17.169 4.68005 12.1208 4.68005ZM18.7545 18.343C18.5321 18.343 18.3146 18.277 18.1297 18.1534C17.9447 18.0298 17.8005 17.8542 17.7154 17.6487C17.6303 17.4431 17.608 17.217 17.6514 16.9988C17.6948 16.7807 17.8019 16.5803 17.9592 16.423C18.1165 16.2657 18.3169 16.1586 18.5351 16.1152C18.7533 16.0718 18.9794 16.094 19.1849 16.1792C19.3904 16.2643 19.5661 16.4084 19.6897 16.5934C19.8132 16.7784 19.8792 16.9958 19.8792 17.2183C19.8792 17.3659 19.8502 17.5122 19.7936 17.6487C19.7371 17.7851 19.6543 17.9091 19.5498 18.0135C19.4454 18.118 19.3214 18.2008 19.1849 18.2573C19.0485 18.3138 18.9022 18.343 18.7545 18.343ZM24.3778 18.343C24.1553 18.3432 23.9377 18.2774 23.7526 18.154C23.5675 18.0306 23.4232 17.855 23.3379 17.6495C23.2525 17.444 23.2301 17.2178 23.2734 16.9996C23.3166 16.7813 23.4236 16.5808 23.5809 16.4234C23.7381 16.266 23.9385 16.1587 24.1567 16.1153C24.3749 16.0718 24.6011 16.094 24.8067 16.1791C25.0123 16.2641 25.188 16.4083 25.3117 16.5933C25.4353 16.7783 25.5013 16.9958 25.5013 17.2183C25.5013 17.5163 25.383 17.8022 25.1723 18.013C24.9616 18.2239 24.6759 18.3427 24.3778 18.343ZM8.7468 11.7639C8.47993 11.7637 8.2191 11.6844 7.99729 11.5361C7.77547 11.3877 7.60264 11.1769 7.50064 10.9303C7.39864 10.6837 7.37206 10.4123 7.42426 10.1506C7.47646 9.88892 7.6051 9.64857 7.7939 9.45996C7.9827 9.27136 8.22319 9.14297 8.48495 9.09104C8.74672 9.03912 9.018 9.06598 9.2645 9.16823C9.511 9.27048 9.72164 9.44354 9.86979 9.6655C10.0179 9.88747 10.0969 10.1484 10.0968 10.4153C10.0968 10.5925 10.0619 10.768 9.99404 10.9317C9.92618 11.0954 9.82672 11.2441 9.70134 11.3694C9.57596 11.4946 9.42712 11.5939 9.26333 11.6616C9.09955 11.7293 8.92402 11.7641 8.7468 11.7639ZM15.4937 11.7639C15.2268 11.7637 14.966 11.6844 14.7442 11.5361C14.5224 11.3877 14.3495 11.1769 14.2475 10.9303C14.1455 10.6837 14.119 10.4123 14.1712 10.1506C14.2234 9.88892 14.352 9.64857 14.5408 9.45996C14.7296 9.27136 14.9701 9.14297 15.2319 9.09104C15.4936 9.03912 15.7649 9.06598 16.0114 9.16823C16.2579 9.27048 16.4685 9.44354 16.6167 9.6655C16.7648 9.88747 16.8438 10.1484 16.8437 10.4153C16.8437 10.5925 16.8088 10.768 16.7409 10.9317C16.673 11.0954 16.5736 11.2441 16.4482 11.3694C16.3228 11.4946 16.174 11.5939 16.0102 11.6616C15.8464 11.7293 15.6709 11.764 15.4937 11.7639Z" fill="#115BCA"/>
</g>
<defs>
<clipPath id="clip0_2055_248">
<rect width="32" height="32" fill="white"/>
</clipPath>
</defs>
</svg>
