<svg width="25" height="24" viewBox="0 0 25 24" fill="none" xmlns="http://www.w3.org/2000/svg">
<path d="M17.1903 12C17.1903 12.8284 17.8896 13.5 18.7522 13.5C19.6149 13.5 20.3142 12.8284 20.3142 12C20.3142 11.1716 19.6149 10.5 18.7522 10.5C17.8896 10.5 17.1903 11.1716 17.1903 12Z" fill="#EEF1F3"/>
<path d="M10.9425 12C10.9425 12.8284 11.6418 13.5 12.5044 13.5C13.3671 13.5 14.0664 12.8284 14.0664 12C14.0664 11.1716 13.3671 10.5 12.5044 10.5C11.6418 10.5 10.9425 11.1716 10.9425 12Z" fill="#EEF1F3"/>
<path d="M4.69468 12C4.69468 12.8284 5.39399 13.5 6.25664 13.5C7.11929 13.5 7.8186 12.8284 7.8186 12C7.8186 11.1716 7.11929 10.5 6.25664 10.5C5.39399 10.5 4.69468 11.1716 4.69468 12Z" fill="#EEF1F3"/>
</svg>
