<?xml version="1.0" standalone="no"?>
<svg xmlns="http://www.w3.org/2000/svg" width="512" height="512" xmlns:xlink="http://www.w3.org/1999/xlink" viewBox="0 0 512 512"><defs><clipPath id="clip-path-background-color-30"><rect x="0" y="0" width="512" height="512"/></clipPath><clipPath id="clip-path-dot-color-30"><path d="M 179 9v 17h 17v -8.5a 8.5 8.5, 0, 0, 0, -8.5 -8.5" transform="rotate(-90,187.5,17.5)"/><rect x="196" y="9" width="17" height="17" transform="rotate(0,204.5,17.5)"/><rect x="213" y="9" width="17" height="17" transform="rotate(0,221.5,17.5)"/><path d="M 230 9v 17h 17v -8.5a 8.5 8.5, 0, 0, 0, -8.5 -8.5" transform="rotate(0,238.5,17.5)"/><circle cx="289.5" cy="17.5" r="8.5" transform="rotate(0,289.5,17.5)"/><path d="M 162 26v 17h 17v -8.5a 8.5 8.5, 0, 0, 0, -8.5 -8.5" transform="rotate(-90,170.5,34.5)"/><rect x="179" y="26" width="17" height="17" transform="rotate(0,187.5,34.5)"/><rect x="196" y="26" width="17" height="17" transform="rotate(0,204.5,34.5)"/><rect x="213" y="26" width="17" height="17" transform="rotate(0,221.5,34.5)"/><rect x="230" y="26" width="17" height="17" transform="rotate(0,238.5,34.5)"/><circle cx="306.5" cy="34.5" r="8.5" transform="rotate(0,306.5,34.5)"/><path d="M 162 43v 17h 8.5a 8.5 8.5, 0, 0, 0, 0 -17" transform="rotate(90,170.5,51.5)"/><rect x="196" y="43" width="17" height="17" transform="rotate(0,204.5,51.5)"/><rect x="230" y="43" width="17" height="17" transform="rotate(0,238.5,51.5)"/><path d="M 264 43v 17h 8.5a 8.5 8.5, 0, 0, 0, 0 -17" transform="rotate(-90,272.5,51.5)"/><path d="M 315 43v 17h 8.5a 8.5 8.5, 0, 0, 0, 0 -17" transform="rotate(180,323.5,51.5)"/><path d="M 332 43v 17h 8.5a 8.5 8.5, 0, 0, 0, 0 -17" transform="rotate(0,340.5,51.5)"/><path d="M 179 60v 17h 17v -8.5a 8.5 8.5, 0, 0, 0, -8.5 -8.5" transform="rotate(-90,187.5,68.5)"/><path d="M 196 60v 17h 17v -8.5a 8.5 8.5, 0, 0, 0, -8.5 -8.5" transform="rotate(90,204.5,68.5)"/><path d="M 230 60v 17h 17v -8.5a 8.5 8.5, 0, 0, 0, -8.5 -8.5" transform="rotate(180,238.5,68.5)"/><rect x="247" y="60" width="17" height="17" transform="rotate(0,255.5,68.5)"/><rect x="264" y="60" width="17" height="17" transform="rotate(0,272.5,68.5)"/><rect x="281" y="60" width="17" height="17" transform="rotate(0,289.5,68.5)"/><path d="M 298 60v 17h 8.5a 8.5 8.5, 0, 0, 0, 0 -17" transform="rotate(0,306.5,68.5)"/><path d="M 145 77v 17h 8.5a 8.5 8.5, 0, 0, 0, 0 -17" transform="rotate(180,153.5,85.5)"/><rect x="162" y="77" width="17" height="17" transform="rotate(0,170.5,85.5)"/><path d="M 179 77v 17h 17v -8.5a 8.5 8.5, 0, 0, 0, -8.5 -8.5" transform="rotate(90,187.5,85.5)"/><path d="M 213 77v 17h 8.5a 8.5 8.5, 0, 0, 0, 0 -17" transform="rotate(-90,221.5,85.5)"/><rect x="247" y="77" width="17" height="17" transform="rotate(0,255.5,85.5)"/><rect x="264" y="77" width="17" height="17" transform="rotate(0,272.5,85.5)"/><rect x="281" y="77" width="17" height="17" transform="rotate(0,289.5,85.5)"/><path d="M 332 77v 17h 8.5a 8.5 8.5, 0, 0, 0, 0 -17" transform="rotate(-90,340.5,85.5)"/><path d="M 196 94v 17h 8.5a 8.5 8.5, 0, 0, 0, 0 -17" transform="rotate(180,204.5,102.5)"/><rect x="213" y="94" width="17" height="17" transform="rotate(0,221.5,102.5)"/><rect x="247" y="94" width="17" height="17" transform="rotate(0,255.5,102.5)"/><rect x="281" y="94" width="17" height="17" transform="rotate(0,289.5,102.5)"/><rect x="298" y="94" width="17" height="17" transform="rotate(0,306.5,102.5)"/><rect x="315" y="94" width="17" height="17" transform="rotate(0,323.5,102.5)"/><path d="M 332 94v 17h 17v -8.5a 8.5 8.5, 0, 0, 0, -8.5 -8.5" transform="rotate(90,340.5,102.5)"/><path d="M 145 111v 17h 8.5a 8.5 8.5, 0, 0, 0, 0 -17" transform="rotate(-90,153.5,119.5)"/><circle cx="187.5" cy="119.5" r="8.5" transform="rotate(0,187.5,119.5)"/><rect x="213" y="111" width="17" height="17" transform="rotate(0,221.5,119.5)"/><path d="M 247 111v 17h 8.5a 8.5 8.5, 0, 0, 0, 0 -17" transform="rotate(90,255.5,119.5)"/><rect x="281" y="111" width="17" height="17" transform="rotate(0,289.5,119.5)"/><path d="M 315 111v 17h 8.5a 8.5 8.5, 0, 0, 0, 0 -17" transform="rotate(90,323.5,119.5)"/><path d="M 349 111v 17h 8.5a 8.5 8.5, 0, 0, 0, 0 -17" transform="rotate(-90,357.5,119.5)"/><rect x="145" y="128" width="17" height="17" transform="rotate(0,153.5,136.5)"/><path d="M 196 128v 17h 17v -8.5a 8.5 8.5, 0, 0, 0, -8.5 -8.5" transform="rotate(-90,204.5,136.5)"/><rect x="213" y="128" width="17" height="17" transform="rotate(0,221.5,136.5)"/><path d="M 230 128v 17h 17v -8.5a 8.5 8.5, 0, 0, 0, -8.5 -8.5" transform="rotate(0,238.5,136.5)"/><path d="M 264 128v 17h 17v -8.5a 8.5 8.5, 0, 0, 0, -8.5 -8.5" transform="rotate(-90,272.5,136.5)"/><path d="M 281 128v 17h 17v -8.5a 8.5 8.5, 0, 0, 0, -8.5 -8.5" transform="rotate(90,289.5,136.5)"/><path d="M 349 128v 17h 8.5a 8.5 8.5, 0, 0, 0, 0 -17" transform="rotate(90,357.5,136.5)"/><path d="M 43 145v 17h 17v -8.5a 8.5 8.5, 0, 0, 0, -8.5 -8.5" transform="rotate(-90,51.5,153.5)"/><path d="M 60 145v 17h 8.5a 8.5 8.5, 0, 0, 0, 0 -17" transform="rotate(0,68.5,153.5)"/><path d="M 111 145v 17h 8.5a 8.5 8.5, 0, 0, 0, 0 -17" transform="rotate(180,119.5,153.5)"/><rect x="128" y="145" width="17" height="17" transform="rotate(0,136.5,153.5)"/><rect x="145" y="145" width="17" height="17" transform="rotate(0,153.5,153.5)"/><rect x="162" y="145" width="17" height="17" transform="rotate(0,170.5,153.5)"/><rect x="179" y="145" width="17" height="17" transform="rotate(0,187.5,153.5)"/><path d="M 196 145v 17h 17v -8.5a 8.5 8.5, 0, 0, 0, -8.5 -8.5" transform="rotate(90,204.5,153.5)"/><path d="M 230 145v 17h 17v -8.5a 8.5 8.5, 0, 0, 0, -8.5 -8.5" transform="rotate(180,238.5,153.5)"/><rect x="247" y="145" width="17" height="17" transform="rotate(0,255.5,153.5)"/><path d="M 264 145v 17h 17v -8.5a 8.5 8.5, 0, 0, 0, -8.5 -8.5" transform="rotate(90,272.5,153.5)"/><path d="M 315 145v 17h 8.5a 8.5 8.5, 0, 0, 0, 0 -17" transform="rotate(-90,323.5,153.5)"/><path d="M 366 145v 17h 17v -8.5a 8.5 8.5, 0, 0, 0, -8.5 -8.5" transform="rotate(-90,374.5,153.5)"/><path d="M 383 145v 17h 17v -8.5a 8.5 8.5, 0, 0, 0, -8.5 -8.5" transform="rotate(0,391.5,153.5)"/><path d="M 417 145v 17h 8.5a 8.5 8.5, 0, 0, 0, 0 -17" transform="rotate(-90,425.5,153.5)"/><path d="M 43 162v 17h 8.5a 8.5 8.5, 0, 0, 0, 0 -17" transform="rotate(90,51.5,170.5)"/><circle cx="85.5" cy="170.5" r="8.5" transform="rotate(0,85.5,170.5)"/><rect x="128" y="162" width="17" height="17" transform="rotate(0,136.5,170.5)"/><path d="M 162 162v 17h 17v -8.5a 8.5 8.5, 0, 0, 0, -8.5 -8.5" transform="rotate(180,170.5,170.5)"/><path d="M 179 162v 17h 17v -8.5a 8.5 8.5, 0, 0, 0, -8.5 -8.5" transform="rotate(90,187.5,170.5)"/><path d="M 298 162v 17h 8.5a 8.5 8.5, 0, 0, 0, 0 -17" transform="rotate(180,306.5,170.5)"/><rect x="315" y="162" width="17" height="17" transform="rotate(0,323.5,170.5)"/><path d="M 349 162v 17h 17v -8.5a 8.5 8.5, 0, 0, 0, -8.5 -8.5" transform="rotate(-90,357.5,170.5)"/><rect x="366" y="162" width="17" height="17" transform="rotate(0,374.5,170.5)"/><rect x="383" y="162" width="17" height="17" transform="rotate(0,391.5,170.5)"/><rect x="400" y="162" width="17" height="17" transform="rotate(0,408.5,170.5)"/><rect x="417" y="162" width="17" height="17" transform="rotate(0,425.5,170.5)"/><rect x="434" y="162" width="17" height="17" transform="rotate(0,442.5,170.5)"/><path d="M 451 162v 17h 17v -8.5a 8.5 8.5, 0, 0, 0, -8.5 -8.5" transform="rotate(0,459.5,170.5)"/><circle cx="493.5" cy="170.5" r="8.5" transform="rotate(0,493.5,170.5)"/><path d="M 26 179v 17h 8.5a 8.5 8.5, 0, 0, 0, 0 -17" transform="rotate(-90,34.5,187.5)"/><path d="M 94 179v 17h 8.5a 8.5 8.5, 0, 0, 0, 0 -17" transform="rotate(180,102.5,187.5)"/><rect x="111" y="179" width="17" height="17" transform="rotate(0,119.5,187.5)"/><path d="M 128 179v 17h 17v -8.5a 8.5 8.5, 0, 0, 0, -8.5 -8.5" transform="rotate(90,136.5,187.5)"/><path d="M 196 179v 17h 8.5a 8.5 8.5, 0, 0, 0, 0 -17" transform="rotate(-90,204.5,187.5)"/><circle cx="238.5" cy="187.5" r="8.5" transform="rotate(0,238.5,187.5)"/><rect x="315" y="179" width="17" height="17" transform="rotate(0,323.5,187.5)"/><rect x="332" y="179" width="17" height="17" transform="rotate(0,340.5,187.5)"/><rect x="349" y="179" width="17" height="17" transform="rotate(0,357.5,187.5)"/><path d="M 383 179v 17h 8.5a 8.5 8.5, 0, 0, 0, 0 -17" transform="rotate(90,391.5,187.5)"/><rect x="417" y="179" width="17" height="17" transform="rotate(0,425.5,187.5)"/><path d="M 451 179v 17h 17v -8.5a 8.5 8.5, 0, 0, 0, -8.5 -8.5" transform="rotate(180,459.5,187.5)"/><path d="M 468 179v 17h 8.5a 8.5 8.5, 0, 0, 0, 0 -17" transform="rotate(0,476.5,187.5)"/><rect x="26" y="196" width="17" height="17" transform="rotate(0,34.5,204.5)"/><path d="M 43 196v 17h 17v -8.5a 8.5 8.5, 0, 0, 0, -8.5 -8.5" transform="rotate(0,51.5,204.5)"/><circle cx="85.5" cy="204.5" r="8.5" transform="rotate(0,85.5,204.5)"/><path d="M 179 196v 17h 8.5a 8.5 8.5, 0, 0, 0, 0 -17" transform="rotate(180,187.5,204.5)"/><rect x="196" y="196" width="17" height="17" transform="rotate(0,204.5,204.5)"/><path d="M 213 196v 17h 8.5a 8.5 8.5, 0, 0, 0, 0 -17" transform="rotate(0,221.5,204.5)"/><path d="M 247 196v 17h 17v -8.5a 8.5 8.5, 0, 0, 0, -8.5 -8.5" transform="rotate(-90,255.5,204.5)"/><rect x="264" y="196" width="17" height="17" transform="rotate(0,272.5,204.5)"/><rect x="281" y="196" width="17" height="17" transform="rotate(0,289.5,204.5)"/><rect x="298" y="196" width="17" height="17" transform="rotate(0,306.5,204.5)"/><rect x="315" y="196" width="17" height="17" transform="rotate(0,323.5,204.5)"/><rect x="349" y="196" width="17" height="17" transform="rotate(0,357.5,204.5)"/><path d="M 400 196v 17h 17v -8.5a 8.5 8.5, 0, 0, 0, -8.5 -8.5" transform="rotate(-90,408.5,204.5)"/><path d="M 417 196v 17h 17v -8.5a 8.5 8.5, 0, 0, 0, -8.5 -8.5" transform="rotate(90,425.5,204.5)"/><path d="M 485 196v 17h 8.5a 8.5 8.5, 0, 0, 0, 0 -17" transform="rotate(-90,493.5,204.5)"/><rect x="26" y="213" width="17" height="17" transform="rotate(0,34.5,221.5)"/><rect x="43" y="213" width="17" height="17" transform="rotate(0,51.5,221.5)"/><path d="M 94 213v 17h 8.5a 8.5 8.5, 0, 0, 0, 0 -17" transform="rotate(180,102.5,221.5)"/><rect x="111" y="213" width="17" height="17" transform="rotate(0,119.5,221.5)"/><rect x="128" y="213" width="17" height="17" transform="rotate(0,136.5,221.5)"/><rect x="145" y="213" width="17" height="17" transform="rotate(0,153.5,221.5)"/><path d="M 162 213v 17h 17v -8.5a 8.5 8.5, 0, 0, 0, -8.5 -8.5" transform="rotate(0,170.5,221.5)"/><path d="M 230 213v 17h 8.5a 8.5 8.5, 0, 0, 0, 0 -17" transform="rotate(180,238.5,221.5)"/><path d="M 247 213v 17h 17v -8.5a 8.5 8.5, 0, 0, 0, -8.5 -8.5" transform="rotate(90,255.5,221.5)"/><path d="M 298 213v 17h 17v -8.5a 8.5 8.5, 0, 0, 0, -8.5 -8.5" transform="rotate(180,306.5,221.5)"/><rect x="315" y="213" width="17" height="17" transform="rotate(0,323.5,221.5)"/><rect x="332" y="213" width="17" height="17" transform="rotate(0,340.5,221.5)"/><rect x="349" y="213" width="17" height="17" transform="rotate(0,357.5,221.5)"/><path d="M 366 213v 17h 8.5a 8.5 8.5, 0, 0, 0, 0 -17" transform="rotate(0,374.5,221.5)"/><rect x="400" y="213" width="17" height="17" transform="rotate(0,408.5,221.5)"/><path d="M 451 213v 17h 17v -8.5a 8.5 8.5, 0, 0, 0, -8.5 -8.5" transform="rotate(-90,459.5,221.5)"/><rect x="468" y="213" width="17" height="17" transform="rotate(0,476.5,221.5)"/><rect x="485" y="213" width="17" height="17" transform="rotate(0,493.5,221.5)"/><path d="M 9 230v 17h 17v -8.5a 8.5 8.5, 0, 0, 0, -8.5 -8.5" transform="rotate(-90,17.5,238.5)"/><rect x="26" y="230" width="17" height="17" transform="rotate(0,34.5,238.5)"/><path d="M 43 230v 17h 17v -8.5a 8.5 8.5, 0, 0, 0, -8.5 -8.5" transform="rotate(90,51.5,238.5)"/><path d="M 162 230v 17h 17v -8.5a 8.5 8.5, 0, 0, 0, -8.5 -8.5" transform="rotate(180,170.5,238.5)"/><path d="M 179 230v 17h 17v -8.5a 8.5 8.5, 0, 0, 0, -8.5 -8.5" transform="rotate(0,187.5,238.5)"/><path d="M 213 230v 17h 8.5a 8.5 8.5, 0, 0, 0, 0 -17" transform="rotate(-90,221.5,238.5)"/><circle cx="289.5" cy="238.5" r="8.5" transform="rotate(0,289.5,238.5)"/><rect x="315" y="230" width="17" height="17" transform="rotate(0,323.5,238.5)"/><rect x="332" y="230" width="17" height="17" transform="rotate(0,340.5,238.5)"/><path d="M 383 230v 17h 8.5a 8.5 8.5, 0, 0, 0, 0 -17" transform="rotate(180,391.5,238.5)"/><rect x="400" y="230" width="17" height="17" transform="rotate(0,408.5,238.5)"/><path d="M 434 230v 17h 17v -8.5a 8.5 8.5, 0, 0, 0, -8.5 -8.5" transform="rotate(-90,442.5,238.5)"/><path d="M 451 230v 17h 17v -8.5a 8.5 8.5, 0, 0, 0, -8.5 -8.5" transform="rotate(90,459.5,238.5)"/><rect x="485" y="230" width="17" height="17" transform="rotate(0,493.5,238.5)"/><path d="M 9 247v 17h 8.5a 8.5 8.5, 0, 0, 0, 0 -17" transform="rotate(90,17.5,255.5)"/><path d="M 94 247v 17h 8.5a 8.5 8.5, 0, 0, 0, 0 -17" transform="rotate(180,102.5,255.5)"/><path d="M 111 247v 17h 8.5a 8.5 8.5, 0, 0, 0, 0 -17" transform="rotate(0,119.5,255.5)"/><path d="M 145 247v 17h 8.5a 8.5 8.5, 0, 0, 0, 0 -17" transform="rotate(-90,153.5,255.5)"/><rect x="179" y="247" width="17" height="17" transform="rotate(0,187.5,255.5)"/><rect x="196" y="247" width="17" height="17" transform="rotate(0,204.5,255.5)"/><rect x="213" y="247" width="17" height="17" transform="rotate(0,221.5,255.5)"/><path d="M 230 247v 17h 8.5a 8.5 8.5, 0, 0, 0, 0 -17" transform="rotate(0,238.5,255.5)"/><path d="M 264 247v 17h 8.5a 8.5 8.5, 0, 0, 0, 0 -17" transform="rotate(-90,272.5,255.5)"/><path d="M 315 247v 17h 17v -8.5a 8.5 8.5, 0, 0, 0, -8.5 -8.5" transform="rotate(180,323.5,255.5)"/><rect x="332" y="247" width="17" height="17" transform="rotate(0,340.5,255.5)"/><rect x="349" y="247" width="17" height="17" transform="rotate(0,357.5,255.5)"/><path d="M 366 247v 17h 8.5a 8.5 8.5, 0, 0, 0, 0 -17" transform="rotate(0,374.5,255.5)"/><path d="M 400 247v 17h 17v -8.5a 8.5 8.5, 0, 0, 0, -8.5 -8.5" transform="rotate(180,408.5,255.5)"/><rect x="417" y="247" width="17" height="17" transform="rotate(0,425.5,255.5)"/><rect x="434" y="247" width="17" height="17" transform="rotate(0,442.5,255.5)"/><path d="M 468 247v 17h 17v -8.5a 8.5 8.5, 0, 0, 0, -8.5 -8.5" transform="rotate(-90,476.5,255.5)"/><path d="M 485 247v 17h 17v -8.5a 8.5 8.5, 0, 0, 0, -8.5 -8.5" transform="rotate(90,493.5,255.5)"/><path d="M 26 264v 17h 8.5a 8.5 8.5, 0, 0, 0, 0 -17" transform="rotate(-90,34.5,272.5)"/><path d="M 60 264v 17h 17v -8.5a 8.5 8.5, 0, 0, 0, -8.5 -8.5" transform="rotate(-90,68.5,272.5)"/><path d="M 77 264v 17h 17v -8.5a 8.5 8.5, 0, 0, 0, -8.5 -8.5" transform="rotate(0,85.5,272.5)"/><path d="M 145 264v 17h 17v -8.5a 8.5 8.5, 0, 0, 0, -8.5 -8.5" transform="rotate(180,153.5,272.5)"/><rect x="162" y="264" width="17" height="17" transform="rotate(0,170.5,272.5)"/><path d="M 179 264v 17h 17v -8.5a 8.5 8.5, 0, 0, 0, -8.5 -8.5" transform="rotate(90,187.5,272.5)"/><path d="M 247 264v 17h 8.5a 8.5 8.5, 0, 0, 0, 0 -17" transform="rotate(180,255.5,272.5)"/><rect x="264" y="264" width="17" height="17" transform="rotate(0,272.5,272.5)"/><path d="M 349 264v 17h 8.5a 8.5 8.5, 0, 0, 0, 0 -17" transform="rotate(90,357.5,272.5)"/><rect x="417" y="264" width="17" height="17" transform="rotate(0,425.5,272.5)"/><rect x="434" y="264" width="17" height="17" transform="rotate(0,442.5,272.5)"/><path d="M 468 264v 17h 8.5a 8.5 8.5, 0, 0, 0, 0 -17" transform="rotate(90,476.5,272.5)"/><path d="M 9 281v 17h 8.5a 8.5 8.5, 0, 0, 0, 0 -17" transform="rotate(180,17.5,289.5)"/><rect x="26" y="281" width="17" height="17" transform="rotate(0,34.5,289.5)"/><rect x="43" y="281" width="17" height="17" transform="rotate(0,51.5,289.5)"/><rect x="60" y="281" width="17" height="17" transform="rotate(0,68.5,289.5)"/><path d="M 77 281v 17h 17v -8.5a 8.5 8.5, 0, 0, 0, -8.5 -8.5" transform="rotate(90,85.5,289.5)"/><circle cx="119.5" cy="289.5" r="8.5" transform="rotate(0,119.5,289.5)"/><circle cx="204.5" cy="289.5" r="8.5" transform="rotate(0,204.5,289.5)"/><rect x="264" y="281" width="17" height="17" transform="rotate(0,272.5,289.5)"/><path d="M 281 281v 17h 8.5a 8.5 8.5, 0, 0, 0, 0 -17" transform="rotate(0,289.5,289.5)"/><path d="M 400 281v 17h 17v -8.5a 8.5 8.5, 0, 0, 0, -8.5 -8.5" transform="rotate(-90,408.5,289.5)"/><rect x="417" y="281" width="17" height="17" transform="rotate(0,425.5,289.5)"/><path d="M 434 281v 17h 17v -8.5a 8.5 8.5, 0, 0, 0, -8.5 -8.5" transform="rotate(90,442.5,289.5)"/><path d="M 94 298v 17h 8.5a 8.5 8.5, 0, 0, 0, 0 -17" transform="rotate(-90,102.5,306.5)"/><path d="M 128 298v 17h 17v -8.5a 8.5 8.5, 0, 0, 0, -8.5 -8.5" transform="rotate(-90,136.5,306.5)"/><rect x="145" y="298" width="17" height="17" transform="rotate(0,153.5,306.5)"/><rect x="162" y="298" width="17" height="17" transform="rotate(0,170.5,306.5)"/><path d="M 179 298v 17h 17v -8.5a 8.5 8.5, 0, 0, 0, -8.5 -8.5" transform="rotate(0,187.5,306.5)"/><path d="M 213 298v 17h 8.5a 8.5 8.5, 0, 0, 0, 0 -17" transform="rotate(180,221.5,306.5)"/><rect x="230" y="298" width="17" height="17" transform="rotate(0,238.5,306.5)"/><rect x="247" y="298" width="17" height="17" transform="rotate(0,255.5,306.5)"/><path d="M 264 298v 17h 17v -8.5a 8.5 8.5, 0, 0, 0, -8.5 -8.5" transform="rotate(90,272.5,306.5)"/><path d="M 298 298v 17h 8.5a 8.5 8.5, 0, 0, 0, 0 -17" transform="rotate(-90,306.5,306.5)"/><circle cx="340.5" cy="306.5" r="8.5" transform="rotate(0,340.5,306.5)"/><path d="M 383 298v 17h 17v -8.5a 8.5 8.5, 0, 0, 0, -8.5 -8.5" transform="rotate(-90,391.5,306.5)"/><rect x="400" y="298" width="17" height="17" transform="rotate(0,408.5,306.5)"/><circle cx="17.5" cy="323.5" r="8.5" transform="rotate(0,17.5,323.5)"/><rect x="94" y="315" width="17" height="17" transform="rotate(0,102.5,323.5)"/><rect x="111" y="315" width="17" height="17" transform="rotate(0,119.5,323.5)"/><rect x="128" y="315" width="17" height="17" transform="rotate(0,136.5,323.5)"/><rect x="145" y="315" width="17" height="17" transform="rotate(0,153.5,323.5)"/><rect x="179" y="315" width="17" height="17" transform="rotate(0,187.5,323.5)"/><path d="M 196 315v 17h 17v -8.5a 8.5 8.5, 0, 0, 0, -8.5 -8.5" transform="rotate(0,204.5,323.5)"/><rect x="298" y="315" width="17" height="17" transform="rotate(0,306.5,323.5)"/><path d="M 315 315v 17h 8.5a 8.5 8.5, 0, 0, 0, 0 -17" transform="rotate(0,323.5,323.5)"/><path d="M 349 315v 17h 8.5a 8.5 8.5, 0, 0, 0, 0 -17" transform="rotate(-90,357.5,323.5)"/><rect x="383" y="315" width="17" height="17" transform="rotate(0,391.5,323.5)"/><rect x="400" y="315" width="17" height="17" transform="rotate(0,408.5,323.5)"/><circle cx="442.5" cy="323.5" r="8.5" transform="rotate(0,442.5,323.5)"/><path d="M 60 332v 17h 8.5a 8.5 8.5, 0, 0, 0, 0 -17" transform="rotate(180,68.5,340.5)"/><rect x="77" y="332" width="17" height="17" transform="rotate(0,85.5,340.5)"/><path d="M 94 332v 17h 17v -8.5a 8.5 8.5, 0, 0, 0, -8.5 -8.5" transform="rotate(90,102.5,340.5)"/><rect x="128" y="332" width="17" height="17" transform="rotate(0,136.5,340.5)"/><rect x="145" y="332" width="17" height="17" transform="rotate(0,153.5,340.5)"/><rect x="162" y="332" width="17" height="17" transform="rotate(0,170.5,340.5)"/><rect x="179" y="332" width="17" height="17" transform="rotate(0,187.5,340.5)"/><path d="M 196 332v 17h 17v -8.5a 8.5 8.5, 0, 0, 0, -8.5 -8.5" transform="rotate(90,204.5,340.5)"/><circle cx="238.5" cy="340.5" r="8.5" transform="rotate(0,238.5,340.5)"/><path d="M 298 332v 17h 8.5a 8.5 8.5, 0, 0, 0, 0 -17" transform="rotate(90,306.5,340.5)"/><rect x="349" y="332" width="17" height="17" transform="rotate(0,357.5,340.5)"/><rect x="366" y="332" width="17" height="17" transform="rotate(0,374.5,340.5)"/><rect x="383" y="332" width="17" height="17" transform="rotate(0,391.5,340.5)"/><rect x="400" y="332" width="17" height="17" transform="rotate(0,408.5,340.5)"/><path d="M 451 332v 17h 17v -8.5a 8.5 8.5, 0, 0, 0, -8.5 -8.5" transform="rotate(-90,459.5,340.5)"/><rect x="468" y="332" width="17" height="17" transform="rotate(0,476.5,340.5)"/><path d="M 485 332v 17h 17v -8.5a 8.5 8.5, 0, 0, 0, -8.5 -8.5" transform="rotate(0,493.5,340.5)"/><path d="M 26 349v 17h 8.5a 8.5 8.5, 0, 0, 0, 0 -17" transform="rotate(180,34.5,357.5)"/><path d="M 43 349v 17h 8.5a 8.5 8.5, 0, 0, 0, 0 -17" transform="rotate(0,51.5,357.5)"/><path d="M 111 349v 17h 8.5a 8.5 8.5, 0, 0, 0, 0 -17" transform="rotate(180,119.5,357.5)"/><path d="M 128 349v 17h 17v -8.5a 8.5 8.5, 0, 0, 0, -8.5 -8.5" transform="rotate(90,136.5,357.5)"/><path d="M 179 349v 17h 8.5a 8.5 8.5, 0, 0, 0, 0 -17" transform="rotate(90,187.5,357.5)"/><path d="M 264 349v 17h 17v -8.5a 8.5 8.5, 0, 0, 0, -8.5 -8.5" transform="rotate(-90,272.5,357.5)"/><path d="M 281 349v 17h 17v -8.5a 8.5 8.5, 0, 0, 0, -8.5 -8.5" transform="rotate(0,289.5,357.5)"/><path d="M 315 349v 17h 17v -8.5a 8.5 8.5, 0, 0, 0, -8.5 -8.5" transform="rotate(-90,323.5,357.5)"/><rect x="332" y="349" width="17" height="17" transform="rotate(0,340.5,357.5)"/><rect x="349" y="349" width="17" height="17" transform="rotate(0,357.5,357.5)"/><rect x="366" y="349" width="17" height="17" transform="rotate(0,374.5,357.5)"/><rect x="383" y="349" width="17" height="17" transform="rotate(0,391.5,357.5)"/><rect x="400" y="349" width="17" height="17" transform="rotate(0,408.5,357.5)"/><rect x="417" y="349" width="17" height="17" transform="rotate(0,425.5,357.5)"/><rect x="434" y="349" width="17" height="17" transform="rotate(0,442.5,357.5)"/><path d="M 451 349v 17h 17v -8.5a 8.5 8.5, 0, 0, 0, -8.5 -8.5" transform="rotate(90,459.5,357.5)"/><rect x="485" y="349" width="17" height="17" transform="rotate(0,493.5,357.5)"/><path d="M 145 366v 17h 17v -8.5a 8.5 8.5, 0, 0, 0, -8.5 -8.5" transform="rotate(-90,153.5,374.5)"/><path d="M 162 366v 17h 8.5a 8.5 8.5, 0, 0, 0, 0 -17" transform="rotate(0,170.5,374.5)"/><path d="M 230 366v 17h 8.5a 8.5 8.5, 0, 0, 0, 0 -17" transform="rotate(-90,238.5,374.5)"/><path d="M 264 366v 17h 17v -8.5a 8.5 8.5, 0, 0, 0, -8.5 -8.5" transform="rotate(180,272.5,374.5)"/><rect x="281" y="366" width="17" height="17" transform="rotate(0,289.5,374.5)"/><rect x="315" y="366" width="17" height="17" transform="rotate(0,323.5,374.5)"/><rect x="349" y="366" width="17" height="17" transform="rotate(0,357.5,374.5)"/><rect x="417" y="366" width="17" height="17" transform="rotate(0,425.5,374.5)"/><path d="M 434 366v 17h 17v -8.5a 8.5 8.5, 0, 0, 0, -8.5 -8.5" transform="rotate(90,442.5,374.5)"/><path d="M 485 366v 17h 8.5a 8.5 8.5, 0, 0, 0, 0 -17" transform="rotate(90,493.5,374.5)"/><path d="M 145 383v 17h 8.5a 8.5 8.5, 0, 0, 0, 0 -17" transform="rotate(90,153.5,391.5)"/><path d="M 179 383v 17h 17v -8.5a 8.5 8.5, 0, 0, 0, -8.5 -8.5" transform="rotate(-90,187.5,391.5)"/><rect x="196" y="383" width="17" height="17" transform="rotate(0,204.5,391.5)"/><rect x="213" y="383" width="17" height="17" transform="rotate(0,221.5,391.5)"/><rect x="230" y="383" width="17" height="17" transform="rotate(0,238.5,391.5)"/><path d="M 281 383v 17h 8.5a 8.5 8.5, 0, 0, 0, 0 -17" transform="rotate(90,289.5,391.5)"/><path d="M 315 383v 17h 17v -8.5a 8.5 8.5, 0, 0, 0, -8.5 -8.5" transform="rotate(180,323.5,391.5)"/><rect x="332" y="383" width="17" height="17" transform="rotate(0,340.5,391.5)"/><rect x="349" y="383" width="17" height="17" transform="rotate(0,357.5,391.5)"/><circle cx="391.5" cy="391.5" r="8.5" transform="rotate(0,391.5,391.5)"/><rect x="417" y="383" width="17" height="17" transform="rotate(0,425.5,391.5)"/><path d="M 451 383v 17h 8.5a 8.5 8.5, 0, 0, 0, 0 -17" transform="rotate(180,459.5,391.5)"/><path d="M 468 383v 17h 17v -8.5a 8.5 8.5, 0, 0, 0, -8.5 -8.5" transform="rotate(0,476.5,391.5)"/><path d="M 179 400v 17h 8.5a 8.5 8.5, 0, 0, 0, 0 -17" transform="rotate(90,187.5,408.5)"/><rect x="230" y="400" width="17" height="17" transform="rotate(0,238.5,408.5)"/><path d="M 247 400v 17h 17v -8.5a 8.5 8.5, 0, 0, 0, -8.5 -8.5" transform="rotate(0,255.5,408.5)"/><path d="M 298 400v 17h 8.5a 8.5 8.5, 0, 0, 0, 0 -17" transform="rotate(-90,306.5,408.5)"/><rect x="349" y="400" width="17" height="17" transform="rotate(0,357.5,408.5)"/><rect x="417" y="400" width="17" height="17" transform="rotate(0,425.5,408.5)"/><path d="M 468 400v 17h 17v -8.5a 8.5 8.5, 0, 0, 0, -8.5 -8.5" transform="rotate(180,476.5,408.5)"/><path d="M 485 400v 17h 17v -8.5a 8.5 8.5, 0, 0, 0, -8.5 -8.5" transform="rotate(0,493.5,408.5)"/><circle cx="170.5" cy="425.5" r="8.5" transform="rotate(0,170.5,425.5)"/><path d="M 196 417v 17h 8.5a 8.5 8.5, 0, 0, 0, 0 -17" transform="rotate(-90,204.5,425.5)"/><rect x="230" y="417" width="17" height="17" transform="rotate(0,238.5,425.5)"/><rect x="247" y="417" width="17" height="17" transform="rotate(0,255.5,425.5)"/><rect x="264" y="417" width="17" height="17" transform="rotate(0,272.5,425.5)"/><rect x="281" y="417" width="17" height="17" transform="rotate(0,289.5,425.5)"/><rect x="298" y="417" width="17" height="17" transform="rotate(0,306.5,425.5)"/><path d="M 349 417v 17h 17v -8.5a 8.5 8.5, 0, 0, 0, -8.5 -8.5" transform="rotate(180,357.5,425.5)"/><rect x="366" y="417" width="17" height="17" transform="rotate(0,374.5,425.5)"/><rect x="383" y="417" width="17" height="17" transform="rotate(0,391.5,425.5)"/><rect x="400" y="417" width="17" height="17" transform="rotate(0,408.5,425.5)"/><rect x="417" y="417" width="17" height="17" transform="rotate(0,425.5,425.5)"/><rect x="434" y="417" width="17" height="17" transform="rotate(0,442.5,425.5)"/><path d="M 451 417v 17h 8.5a 8.5 8.5, 0, 0, 0, 0 -17" transform="rotate(0,459.5,425.5)"/><path d="M 485 417v 17h 8.5a 8.5 8.5, 0, 0, 0, 0 -17" transform="rotate(90,493.5,425.5)"/><path d="M 145 434v 17h 8.5a 8.5 8.5, 0, 0, 0, 0 -17" transform="rotate(-90,153.5,442.5)"/><path d="M 179 434v 17h 17v -8.5a 8.5 8.5, 0, 0, 0, -8.5 -8.5" transform="rotate(-90,187.5,442.5)"/><rect x="196" y="434" width="17" height="17" transform="rotate(0,204.5,442.5)"/><rect x="213" y="434" width="17" height="17" transform="rotate(0,221.5,442.5)"/><rect x="230" y="434" width="17" height="17" transform="rotate(0,238.5,442.5)"/><rect x="247" y="434" width="17" height="17" transform="rotate(0,255.5,442.5)"/><path d="M 264 434v 17h 17v -8.5a 8.5 8.5, 0, 0, 0, -8.5 -8.5" transform="rotate(90,272.5,442.5)"/><rect x="298" y="434" width="17" height="17" transform="rotate(0,306.5,442.5)"/><rect x="315" y="434" width="17" height="17" transform="rotate(0,323.5,442.5)"/><path d="M 332 434v 17h 8.5a 8.5 8.5, 0, 0, 0, 0 -17" transform="rotate(0,340.5,442.5)"/><path d="M 417 434v 17h 17v -8.5a 8.5 8.5, 0, 0, 0, -8.5 -8.5" transform="rotate(180,425.5,442.5)"/><rect x="434" y="434" width="17" height="17" transform="rotate(0,442.5,442.5)"/><circle cx="476.5" cy="442.5" r="8.5" transform="rotate(0,476.5,442.5)"/><path d="M 145 451v 17h 17v -8.5a 8.5 8.5, 0, 0, 0, -8.5 -8.5" transform="rotate(180,153.5,459.5)"/><rect x="162" y="451" width="17" height="17" transform="rotate(0,170.5,459.5)"/><rect x="179" y="451" width="17" height="17" transform="rotate(0,187.5,459.5)"/><path d="M 230 451v 17h 17v -8.5a 8.5 8.5, 0, 0, 0, -8.5 -8.5" transform="rotate(180,238.5,459.5)"/><path d="M 247 451v 17h 17v -8.5a 8.5 8.5, 0, 0, 0, -8.5 -8.5" transform="rotate(90,255.5,459.5)"/><path d="M 281 451v 17h 8.5a 8.5 8.5, 0, 0, 0, 0 -17" transform="rotate(180,289.5,459.5)"/><rect x="298" y="451" width="17" height="17" transform="rotate(0,306.5,459.5)"/><rect x="315" y="451" width="17" height="17" transform="rotate(0,323.5,459.5)"/><circle cx="357.5" cy="459.5" r="8.5" transform="rotate(0,357.5,459.5)"/><circle cx="408.5" cy="459.5" r="8.5" transform="rotate(0,408.5,459.5)"/><rect x="434" y="451" width="17" height="17" transform="rotate(0,442.5,459.5)"/><path d="M 451 451v 17h 8.5a 8.5 8.5, 0, 0, 0, 0 -17" transform="rotate(0,459.5,459.5)"/><circle cx="493.5" cy="459.5" r="8.5" transform="rotate(0,493.5,459.5)"/><path d="M 162 468v 17h 17v -8.5a 8.5 8.5, 0, 0, 0, -8.5 -8.5" transform="rotate(180,170.5,476.5)"/><rect x="179" y="468" width="17" height="17" transform="rotate(0,187.5,476.5)"/><rect x="196" y="468" width="17" height="17" transform="rotate(0,204.5,476.5)"/><path d="M 213 468v 17h 17v -8.5a 8.5 8.5, 0, 0, 0, -8.5 -8.5" transform="rotate(0,221.5,476.5)"/><circle cx="272.5" cy="476.5" r="8.5" transform="rotate(0,272.5,476.5)"/><rect x="315" y="468" width="17" height="17" transform="rotate(0,323.5,476.5)"/><path d="M 383 468v 17h 8.5a 8.5 8.5, 0, 0, 0, 0 -17" transform="rotate(-90,391.5,476.5)"/><path d="M 417 468v 17h 8.5a 8.5 8.5, 0, 0, 0, 0 -17" transform="rotate(180,425.5,476.5)"/><path d="M 434 468v 17h 17v -8.5a 8.5 8.5, 0, 0, 0, -8.5 -8.5" transform="rotate(90,442.5,476.5)"/><path d="M 468 468v 17h 8.5a 8.5 8.5, 0, 0, 0, 0 -17" transform="rotate(-90,476.5,476.5)"/><path d="M 179 485v 17h 8.5a 8.5 8.5, 0, 0, 0, 0 -17" transform="rotate(90,187.5,493.5)"/><path d="M 213 485v 17h 8.5a 8.5 8.5, 0, 0, 0, 0 -17" transform="rotate(90,221.5,493.5)"/><circle cx="255.5" cy="493.5" r="8.5" transform="rotate(0,255.5,493.5)"/><path d="M 281 485v 17h 8.5a 8.5 8.5, 0, 0, 0, 0 -17" transform="rotate(180,289.5,493.5)"/><rect x="298" y="485" width="17" height="17" transform="rotate(0,306.5,493.5)"/><rect x="315" y="485" width="17" height="17" transform="rotate(0,323.5,493.5)"/><path d="M 332 485v 17h 8.5a 8.5 8.5, 0, 0, 0, 0 -17" transform="rotate(0,340.5,493.5)"/><path d="M 383 485v 17h 17v -8.5a 8.5 8.5, 0, 0, 0, -8.5 -8.5" transform="rotate(180,391.5,493.5)"/><path d="M 400 485v 17h 8.5a 8.5 8.5, 0, 0, 0, 0 -17" transform="rotate(0,408.5,493.5)"/><path d="M 468 485v 17h 8.5a 8.5 8.5, 0, 0, 0, 0 -17" transform="rotate(90,476.5,493.5)"/></clipPath><clipPath id="clip-path-corners-square-color-0-0-30"><path clip-rule="evenodd" d="M 9 51.5v 34a 42.5 42.5, 0, 0, 0, 42.5 42.5h 34a 42.5 42.5, 0, 0, 0, 42.5 -42.5v -34a 42.5 42.5, 0, 0, 0, -42.5 -42.5h -34a 42.5 42.5, 0, 0, 0, -42.5 42.5M 51.5 26h 34a 25.5 25.5, 0, 0, 1, 25.5 25.5v 34a 25.5 25.5, 0, 0, 1, -25.5 25.5h -34a 25.5 25.5, 0, 0, 1, -25.5 -25.5v -34a 25.5 25.5, 0, 0, 1, 25.5 -25.5" transform="rotate(0,68.5,68.5)"/></clipPath><clipPath id="clip-path-corners-dot-color-0-0-30"><circle cx="68.5" cy="68.5" r="25.5" transform="rotate(0,68.5,68.5)"/></clipPath><clipPath id="clip-path-corners-square-color-1-0-30"><path clip-rule="evenodd" d="M 383 51.5v 34a 42.5 42.5, 0, 0, 0, 42.5 42.5h 34a 42.5 42.5, 0, 0, 0, 42.5 -42.5v -34a 42.5 42.5, 0, 0, 0, -42.5 -42.5h -34a 42.5 42.5, 0, 0, 0, -42.5 42.5M 425.5 26h 34a 25.5 25.5, 0, 0, 1, 25.5 25.5v 34a 25.5 25.5, 0, 0, 1, -25.5 25.5h -34a 25.5 25.5, 0, 0, 1, -25.5 -25.5v -34a 25.5 25.5, 0, 0, 1, 25.5 -25.5" transform="rotate(90,442.5,68.5)"/></clipPath><clipPath id="clip-path-corners-dot-color-1-0-30"><circle cx="442.5" cy="68.5" r="25.5" transform="rotate(90,442.5,68.5)"/></clipPath><clipPath id="clip-path-corners-square-color-0-1-30"><path clip-rule="evenodd" d="M 9 425.5v 34a 42.5 42.5, 0, 0, 0, 42.5 42.5h 34a 42.5 42.5, 0, 0, 0, 42.5 -42.5v -34a 42.5 42.5, 0, 0, 0, -42.5 -42.5h -34a 42.5 42.5, 0, 0, 0, -42.5 42.5M 51.5 400h 34a 25.5 25.5, 0, 0, 1, 25.5 25.5v 34a 25.5 25.5, 0, 0, 1, -25.5 25.5h -34a 25.5 25.5, 0, 0, 1, -25.5 -25.5v -34a 25.5 25.5, 0, 0, 1, 25.5 -25.5" transform="rotate(-90,68.5,442.5)"/></clipPath><clipPath id="clip-path-corners-dot-color-0-1-30"><circle cx="68.5" cy="442.5" r="25.5" transform="rotate(-90,68.5,442.5)"/></clipPath></defs><rect x="0" y="0" height="512" width="512" clip-path="url('#clip-path-background-color-30')" fill="#f0f0f0"/><rect x="0" y="0" height="512" width="512" clip-path="url('#clip-path-dot-color-30')" fill="#115bca"/><rect x="9" y="9" height="119" width="119" clip-path="url('#clip-path-corners-square-color-0-0-30')" fill="#007aff"/><rect x="43" y="43" height="51" width="51" clip-path="url('#clip-path-corners-dot-color-0-0-30')" fill="#005ecb"/><rect x="383" y="9" height="119" width="119" clip-path="url('#clip-path-corners-square-color-1-0-30')" fill="#007aff"/><rect x="417" y="43" height="51" width="51" clip-path="url('#clip-path-corners-dot-color-1-0-30')" fill="#005ecb"/><rect x="9" y="383" height="119" width="119" clip-path="url('#clip-path-corners-square-color-0-1-30')" fill="#007aff"/><rect x="43" y="417" height="51" width="51" clip-path="url('#clip-path-corners-dot-color-0-1-30')" fill="#005ecb"/></svg>